<svg xmlns="http://www.w3.org/2000/svg" xmlns:xlink="http://www.w3.org/1999/xlink" width="480" height="640" viewBox="0 0 480 640" id="monster">
  <defs>
    <linearGradient id="Unbenannter_Verlauf_20" data-name="Unbenannter Verlauf 20" x1="131" y1="297" x2="349" y2="297" gradientUnits="userSpaceOnUse">
      <stop offset="0" stop-color="#0084d4"/>
      <stop offset="1" stop-color="#0047b4"/>
    </linearGradient>
    <linearGradient id="Unbenannter_Verlauf_20-2" x1="125" y1="314.87" x2="355" y2="314.87" xlink:href="#Unbenannter_Verlauf_20"/>
    <linearGradient id="Unbenannter_Verlauf_20-3" x1="107" y1="310" x2="373" y2="310" xlink:href="#Unbenannter_Verlauf_20"/>
    <linearGradient id="Unbenannter_Verlauf_20-4" x1="2132.64" y1="176.84" x2="1851.49" y2="457.99" gradientTransform="matrix(-1, 0, 0, 1, 2232.12, 0)" xlink:href="#Unbenannter_Verlauf_20"/>
    <linearGradient id="Unbenannter_Verlauf_20-5" x1="72.77" y1="159.42" x2="407.22" y2="493.87" xlink:href="#Unbenannter_Verlauf_20"/>
    <linearGradient id="Unbenannter_Verlauf_30" data-name="Unbenannter Verlauf 30" x1="182.86" y1="274.67" x2="200.38" y2="274.67" gradientUnits="userSpaceOnUse">
      <stop offset="0" stop-color="#fff"/>
      <stop offset="1" stop-color="#ccb"/>
    </linearGradient>
    <linearGradient id="Unbenannter_Verlauf_30-2" x1="281.7" y1="276.95" x2="299.53" y2="276.95" xlink:href="#Unbenannter_Verlauf_30"/>
    <linearGradient id="Unbenannter_Verlauf_30-3" x1="202.15" y1="279.63" x2="219.59" y2="279.63" xlink:href="#Unbenannter_Verlauf_30"/>
    <linearGradient id="Unbenannter_Verlauf_30-4" x1="222.02" y1="283.5" x2="239.45" y2="283.5" xlink:href="#Unbenannter_Verlauf_30"/>
    <linearGradient id="Unbenannter_Verlauf_30-5" x1="241.79" y1="284.37" x2="259.26" y2="284.37" xlink:href="#Unbenannter_Verlauf_30"/>
    <linearGradient id="Unbenannter_Verlauf_30-6" x1="262.42" y1="281.53" x2="280.04" y2="281.53" xlink:href="#Unbenannter_Verlauf_30"/>
    <linearGradient id="Unbenannter_Verlauf_30-7" x1="263.06" y1="295.3" x2="281.66" y2="295.3" xlink:href="#Unbenannter_Verlauf_30"/>
    <linearGradient id="Unbenannter_Verlauf_30-8" x1="199.02" y1="295.09" x2="217.67" y2="295.09" xlink:href="#Unbenannter_Verlauf_30"/>
    <linearGradient id="Unbenannter_Verlauf_30-9" x1="220.85" y1="299.94" x2="239.47" y2="299.94" xlink:href="#Unbenannter_Verlauf_30"/>
    <linearGradient id="Unbenannter_Verlauf_30-10" x1="241.12" y1="299.94" x2="259.79" y2="299.94" xlink:href="#Unbenannter_Verlauf_30"/>
    <linearGradient id="Unbenannter_Verlauf_30-11" x1="271.68" y1="297.86" x2="293.29" y2="297.86" xlink:href="#Unbenannter_Verlauf_30"/>
    <linearGradient id="Unbenannter_Verlauf_30-12" x1="194.25" y1="297.75" x2="215.23" y2="297.75" xlink:href="#Unbenannter_Verlauf_30"/>
    <linearGradient id="Unbenannter_Verlauf_30-13" x1="193.2" y1="290.52" x2="221.7" y2="290.52" xlink:href="#Unbenannter_Verlauf_30"/>
    <linearGradient id="Unbenannter_Verlauf_30-14" x1="261.58" y1="291.04" x2="290.32" y2="291.04" xlink:href="#Unbenannter_Verlauf_30"/>
    <linearGradient id="Unbenannter_Verlauf_30-15" x1="194.07" y1="280.53" x2="214.67" y2="280.53" xlink:href="#Unbenannter_Verlauf_30"/>
    <linearGradient id="Unbenannter_Verlauf_30-16" x1="268.32" y1="279.88" x2="289.98" y2="279.88" xlink:href="#Unbenannter_Verlauf_30"/>
    <linearGradient id="Unbenannter_Verlauf_30-17" x1="198.7" y1="387.97" x2="216.26" y2="387.97" xlink:href="#Unbenannter_Verlauf_30"/>
    <linearGradient id="Unbenannter_Verlauf_30-18" x1="275.54" y1="390" x2="291.62" y2="390" xlink:href="#Unbenannter_Verlauf_30"/>
    <linearGradient id="Unbenannter_Verlauf_30-19" x1="248.02" y1="380.55" x2="268.39" y2="380.55" xlink:href="#Unbenannter_Verlauf_30"/>
    <linearGradient id="Unbenannter_Verlauf_30-20" x1="221.12" y1="379.42" x2="241.83" y2="379.42" xlink:href="#Unbenannter_Verlauf_30"/>
    <linearGradient id="Unbenannter_Verlauf_21" data-name="Unbenannter Verlauf 21" x1="307.77" y1="460.8" x2="307.77" y2="492.28" gradientUnits="userSpaceOnUse">
      <stop offset="0" stop-color="#a9965f"/>
      <stop offset="1" stop-color="#dbc78c"/>
    </linearGradient>
    <linearGradient id="Unbenannter_Verlauf_56" data-name="Unbenannter Verlauf 56" x1="292.27" y1="474.36" x2="320.69" y2="474.36" gradientUnits="userSpaceOnUse">
      <stop offset="0" stop-color="#f5efdf"/>
      <stop offset="1" stop-color="#dbc78c"/>
    </linearGradient>
    <linearGradient id="Unbenannter_Verlauf_21-2" x1="308.83" y1="473.78" x2="308.83" y2="416.87" xlink:href="#Unbenannter_Verlauf_21"/>
    <linearGradient id="Unbenannter_Verlauf_56-2" x1="283.02" y1="413.7" x2="327" y2="464.3" xlink:href="#Unbenannter_Verlauf_56"/>
    <linearGradient id="Unbenannter_Verlauf_7" data-name="Unbenannter Verlauf 7" x1="293.44" y1="427.02" x2="316.58" y2="450.98" gradientUnits="userSpaceOnUse">
      <stop offset="0" stop-color="#dbc78c"/>
      <stop offset="1" stop-color="#f5efdf"/>
    </linearGradient>
  </defs>
  <g id="body_female" class="body">
    <path d="M357.91,444.08c-1-39.63-15.39-112-22.89-138.25l5.77-1.65c7.56,26.48,22.09,99.64,23.11,139.75Z"/>
    <path d="M118,444.08l-6-.15c1-40.1,15.55-113.27,23.11-139.75l5.77,1.65C133.39,332,119,404.45,118,444.08Z"/>
    <path d="M275.11,546.37c-2.23,0-4.33-.08-7.72-.22l-6.26-.24.39-3.24c3.4-28-6.37-80.93-6.47-81.46l5.9-1.1c.4,2.13,9.36,50.66,6.86,80a130,130,0,0,0,16.53-.12l.31,6C280.11,546.27,277.53,546.37,275.11,546.37Z"/>
    <path d="M204.89,546.37c-2.43,0-5-.1-9.55-.34l.31-6a130,130,0,0,0,16.53.12c-2.5-29.43,6.46-78.55,6.86-80.7l5.9,1.09c-.1.54-9.88,54.14-6.47,82.13l.39,3.24-6.26.24C209.23,546.28,207.13,546.37,204.89,546.37Z"/>
    <path class="body_shape" d="M240,500c-60.2,0-109-63.33-109-171.63S181.5,94,240,94,349,220.06,349,328.37,300.2,500,240,500Z"/>
    <path d="M97.07,449.28c1,1.79,6,.94,11.26-1.89l.57-.31c-.37,1.14-.74,2.36-1.13,3.62-2.07,6.8-2.17,12.78-.23,13.37s4.86-3.94,6.92-10.2c1.21,7,3.69,12.33,5.64,12s2.68-6.49,1.51-13.77l-.28-1.73c4,3.51,8,5.26,9.3,3.94s-1.25-5.77-5.4-10.13c-8.52-9-15.39-6-20.4-3.31C99.59,443.75,96.11,447.5,97.07,449.28Z"/>
    <path d="M378.84,449.28c-1,1.79-6,.94-11.26-1.89l-.57-.31c.37,1.14.74,2.36,1.13,3.62,2.07,6.8,2.17,12.78.23,13.37s-4.86-3.94-6.92-10.2c-1.21,7-3.69,12.33-5.64,12s-2.68-6.49-1.51-13.77l.28-1.73c-4,3.51-8,5.26-9.3,3.94s1.25-5.77,5.4-10.13c8.52-9,15.39-6,20.4-3.31C376.32,443.75,379.8,447.5,378.84,449.28Z"/>
  </g>
  <g id="body_femalish" class="body">
      <path d="M115.55,437.4l-10-.8c.16-2,.33-4.19.51-6.67,2.27-30.11,7-92.77,24.27-119.64l8.41,5.41c-15.9,24.74-20.67,88-22.71,115C115.88,433.18,115.71,435.43,115.55,437.4Z"/>
      <path d="M366,437.4c-.16-2-.33-4.22-.52-6.71-2-27-6.8-90.24-22.71-115l8.41-5.41c17.27,26.87,22,89.53,24.27,119.64.19,2.48.36,4.71.51,6.67Z"/>
        <path d="M280.69,547.37c-5,0-10.47-.11-16.37-.32l-5.48-.2.7-5.44c3.3-25.64-6.63-52.91-6.73-53.18l9.38-3.47c.42,1.13,9.57,26.26,7.8,52.45,9.24.24,17.21.19,24.26-.16l.49,10C290.41,547.26,285.75,547.37,280.69,547.37Z"/>
        <path d="M199.31,547.37c-5.06,0-9.72-.11-14.06-.32l.49-10c7,.35,15,.4,24.26.16-1.77-26.19,7.39-51.33,7.8-52.45l9.38,3.47-4.69-1.73,4.69,1.73c-.1.27-10,27.62-6.73,53.18l.7,5.44-5.48.2C209.78,547.26,204.35,547.37,199.31,547.37Z"/>
      <path class="body_shape" d="M240,505c-63.51,0-115-16.88-115-153,0-129.47,28.75-227.23,115-227.23,82.48,0,115,93.75,115,227.23C355,488.12,303.51,505,240,505Z"/>
      <path d="M393.13,447.81c-1.76,3.51-5.91.8-10.74-1.16,1.43,8.64,3.19,20.31-2.34,21.22-3.73.62-6.35-8-7.72-13.8-2,5.83-5.29,12.73-9.55,11.42-4.77-1.47-2.45-10.45-.24-18-4.37,2.77-10.73,6.84-12.85,3.67-2.4-3.58,3.53-11.11,9.24-15.41,11.33-8.55,19.75-5.41,24.92-1.46C389.85,438.81,395.15,443.77,393.13,447.81Z"/>
      <path d="M88.44,447.81c1.76,3.51,5.91.8,10.74-1.16-1.43,8.64-3.19,20.31,2.34,21.22,3.73.62,6.35-8,7.72-13.8,2,5.83,5.29,12.73,9.55,11.42,4.77-1.47,2.45-10.45.24-18,4.37,2.77,10.73,6.84,12.85,3.67,2.4-3.58-3.53-11.11-9.24-15.41-11.33-8.55-19.75-5.41-24.92-1.46C91.72,438.81,86.42,443.77,88.44,447.81Z"/>
  </g>
  <g id="body_neutral" class="body">
    <path d="M378.85,419.6l-13.63-3.2c8.7-37.06,6.22-84.91-18.95-108.27l9.52-10.26C381.55,321.78,390.6,369.56,378.85,419.6Z"/>
    <path d="M101.19,419.6c-11.75-50-2.7-97.82,23.05-121.73l9.52,10.26c-25.16,23.36-27.65,71.21-18.95,108.27Z"/>
    <path d="M217.78,541.87H172v-12h32.45c-1.5-27.27,7.47-53.18,7.89-54.36l11.32,4-5.66-2,5.66,2c-.1.29-10,28.91-6.71,55.65Z"/>
    <path d="M308,541.87H262.22l.83-6.73c3.29-26.82-6.6-55.36-6.7-55.64l11.32-4c.41,1.18,9.39,27.09,7.89,54.36H308Z"/>
    <path class="body_shape" d="M240,501H209.09c-62,0-91.36-37.79-95.89-80.39C105.51,348.3,106.06,308.16,109,262c6.07-94,57.61-143,131-143s124.9,49,131,143c3,46.12,3.52,86.26-4.17,158.56C362.27,463.21,332.87,501,270.91,501Z"/>
    <path d="M85.31,436.91c3,3.94,7.82,2.52,13.35-1,.23,11,.46,19.9,7.52,19.76,4.76-.1,6.29-5.42,6.64-12.9,3.77,6.76,7.37,11.13,12.33,8.53,5.56-2.92,2.73-10.09-1.75-19,6,2.42,11.13,2.93,13-1.48,2.14-5-3.21-9.87-11.26-13.88-16-8-25.43-.44-31.16,3.94C86.69,426.45,81.88,432.38,85.31,436.91Z"/>
    <path d="M395.33,440.08c-3,4-7.9,2.54-13.47-1-.23,11.11-.46,20.09-7.59,19.94-4.81-.1-6.35-5.47-6.7-13-3.8,6.82-7.44,11.24-12.44,8.61-5.61-2.95-2.76-10.19,1.77-19.16-6.1,2.44-11.23,3-13.14-1.5-2.16-5,3.24-10,11.36-14,16.14-8,25.67-.44,31.45,4C393.94,429.51,398.8,435.5,395.33,440.08Z"/>
  </g>
  <g id="body_malish" class="body">
    <path d="M154.95,545.85l-.9-16c14.74-.83,30.88-1,40.87-1-4.08-31.65,9.23-52.74,9.86-53.7l13.44,8.68-6.72-4.34,6.74,4.31c-.13.21-13,21.1-6,51.27l2.33,9.94-10.21-.12C204.14,544.89,177.4,544.59,154.95,545.85Z"/>
    <path d="M325.05,545.85c-22.45-1.26-49.19-1-49.46-1l-10.21.12,2.33-9.94c7.14-30.52-5.8-51-5.93-51.23l13.44-8.68c.62,1,13.94,22.05,9.86,53.7,10,0,26.13.19,40.87,1Z"/>
    <path class="body_shape" d="M240,513.75l32.24.25c64.62,0,75.56-10,81.76-57.56,42-43.94,35.17-165,30-221.94-7-77-17-103.5-144-103.5S103,157,96,234c-5.17,56.91-12,178,30,221.94,6.21,47.53,17.14,57.56,81.76,57.56Z" style="fill: url(#Unbenannter_Verlauf_20-4)"/>
    <path d="M125,456.06c-.06-1-6-103.62-4-153.1l2,.08c-2,49.38,3.94,151.87,4,152.9Z"/>
    <path d="M355.59,456.06l-2-.12c.06-1,6-103.52,4-152.9l2-.08C361.57,352.44,355.65,455,355.59,456.06Z"/>
  </g>
  <g id="body_male" class="body">
    <path d="M362.33,549.73c-22.66-3.84-67.44-1.92-67.89-1.9l-12.57.55L284.17,536c7.48-40.37-6.69-94.39-6.83-94.93l19.32-5.16c.58,2.17,13,49.27,8.86,91.55,15.61-.33,42.89-.39,60.15,2.53Z"/>
    <path d="M117.67,549.73,114.33,530c17.25-2.93,44.53-2.87,60.15-2.53-4.1-42.28,8.28-89.38,8.86-91.55l19.32,5.16L193,438.5l9.66,2.58c-.14.54-14.31,54.57-6.83,94.93l2.29,12.37-12.57-.55C185.11,547.8,140.34,545.88,117.67,549.73Z"/>
    <path class="body_shape" d="M239.88,129.5h0c138,0,176.65,14.57,175.6,59.42-5.33,226.13-14.54,280-20.09,309.42-4.23,22.42-23.26,23.54-46.52,19.06-29.78-5.74-38.25-8.82-33.83-38.12,1.47-9.78,3.47-27.78,3.47-27.78s-31.51,2-78.51,2-78.5-2-78.5-2,2,18,3.47,27.78c4.42,29.29-4,32.37-33.83,38.12-23.26,4.48-42.29,3.36-46.52-19.06C79.08,468.9,69.87,415,64.54,188.92c-1.06-44.84,37.37-59.42,175.33-59.42Z" style="fill: url(#Unbenannter_Verlauf_20-5)"/>
    <path d="M320,451.17l-2-.34c.06-.35,6-35.29,9-62.94l2,.21C326,415.82,320,450.82,320,451.17Z"/>
    <path d="M331,513.28l-1.92-.56a237.52,237.52,0,0,0,7-33.83l2,.23A239.75,239.75,0,0,1,331,513.28Z"/>
    <path d="M349.94,517.33l-1.89-.67A180,180,0,0,0,356,481.89l2,.22A182.16,182.16,0,0,1,349.94,517.33Z"/>
    <path d="M368.92,519.38l-1.85-.76c.07-.17,6.95-17.06,7.93-34.67l2,.11C376,502,369,519.21,368.92,519.38Z"/>
    <path d="M160,451.17c-.06-.35-6-35.35-9-63.06l2-.21c3,27.65,8.93,62.59,9,62.94Z"/>
    <path d="M149,513.28a239.75,239.75,0,0,1-7-34.17l2-.23a237.39,237.39,0,0,0,7,33.83Z"/>
    <path d="M130.06,517.33A182.16,182.16,0,0,1,122,482.11l2-.22a180,180,0,0,0,7.95,34.78Z"/>
    <path d="M111.08,519.38C111,519.21,104,502,103,484.06l2-.11c1,17.61,7.86,34.51,7.93,34.67Z"/>
  </g>
  <g id="mouth_positive_high" class="mouth">
    <path d="M321.5,286.5c9.66,46.52-13,140-79.5,140-62.5,0-90.72-92.6-80.5-139,9.5-43.12,31.35-10,80.5-10S314,250.38,321.5,286.5Z"/>
    <path d="M189.29,283.48c4.76.69,10.17-5.57,11-11.29a9.68,9.68,0,0,0,.09-2c-6.11-1.87-11.42-3.58-16-4.38a10.15,10.15,0,0,0-1.3,3.88C182.2,275.42,184.52,282.79,189.29,283.48Z" style="fill: url(#Unbenannter_Verlauf_30)"/>
    <path d="M282.34,275.9c1.89,5.46,7.33,10.94,11.88,9.37s6.48-9.61,4.59-15.07a9.67,9.67,0,0,0-.85-1.84c-4.68.79-10.08,2.21-16.26,3.72A10.39,10.39,0,0,0,282.34,275.9Z" style="fill: url(#Unbenannter_Verlauf_30-2)"/>
    <path d="M209.57,288.21c4.8.29,9.67-6.4,10-12.16,0-.28,0-.54,0-.81-6-1.19-11.48-2.71-16.44-4.2a10.17,10.17,0,0,0-1,4C201.84,280.77,204.76,287.92,209.57,288.21Z" style="fill: url(#Unbenannter_Verlauf_30-3)"/>
    <path d="M230.25,291.26c4.81,0,9.23-7,9.2-12.79,0-.35,0-.68-.05-1a114.07,114.07,0,0,1-17.07-1.72,11.5,11.5,0,0,0-.31,2.82C222,284.34,225.43,291.28,230.25,291.26Z" style="fill: url(#Unbenannter_Verlauf_30-4)"/>
    <path d="M241.85,280.35c.54,5.75,4.54,12.37,9.33,11.91s8.57-7.81,8-13.56a9.39,9.39,0,0,0-.49-2.24,137.53,137.53,0,0,1-16.72,1h-.09A11.49,11.49,0,0,0,241.85,280.35Z" style="fill: url(#Unbenannter_Verlauf_30-5)"/>
    <path d="M262.74,279.55c1.31,5.63,6.15,11.65,10.83,10.56s7.45-8.88,6.14-14.51a9,9,0,0,0-1.13-2.79c-4.9,1.15-10.26,2.28-16.11,3.14A10.66,10.66,0,0,0,262.74,279.55Z" style="fill: url(#Unbenannter_Verlauf_30-6)"/>
  </g>
  <g id="mouth_positive_medium" class="mouth">
    <path d="M240,391c52,0,81.46-74.33,70.65-100-8-19-37.65,2-70.65,2s-59-21-67-2C162.19,316.67,188,391,240,391Z"/>
    <path d="M275.6,304.79c3.06-.73,7.44-11.22,5.64-18.57,0-.17-.09-.32-.14-.48-5.55,1.38-11.62,3.05-18,4.45,0,.16.06.3.1.46C265,298,272.14,305.62,275.6,304.79Z" style="fill: url(#Unbenannter_Verlauf_30-7)"/>
    <path d="M204.39,304.6c3.07.69,11.63-6.79,13.25-14.18,0-.06,0-.12,0-.19-6.52-1.47-12.56-3.27-18-4.7-.08.29-.16.58-.22.89C197.84,293.81,200.92,303.82,204.39,304.6Z" style="fill: url(#Unbenannter_Verlauf_30-8)"/>
    <path d="M228,308.93c3.13.31,10.72-8.14,11.45-15.68,0-.09,0-.17,0-.26A96.76,96.76,0,0,1,221,290.94c0,.18,0,.35-.07.53C220.21,299,224.48,308.57,228,308.93Z" style="fill: url(#Unbenannter_Verlauf_30-9)"/>
    <path d="M252.55,309c3.11-.5,8.27-10.59,7.06-18.06A104.42,104.42,0,0,1,241.12,293c0,.3.07.6.12.91C242.47,301.37,249,309.52,252.55,309Z" style="fill: url(#Unbenannter_Verlauf_30-10)"/>
  </g>
  <g id="mouth_positive_low" class="mouth">
    <path d="M242,339.34c47,0,67.5-34.62,62.09-46.12-5.11-10.85-22.29,9.95-63.9,9.95-37.08,0-55.17-23.51-60.59-9.95C175.68,303,195,339.34,242,339.34Z"/>
    <path d="M284.55,304.27c2.13-.46,7-6.8,8.73-12.91-5.18,1.73-12.22,4.89-21.61,7.51C276,302.48,282,304.83,284.55,304.27Z" style="fill: url(#Unbenannter_Verlauf_30-11)"/>
    <path d="M200.88,303.73c1.88.94,9.17-.8,14.35-4.21-8.6-2.51-15.54-5.78-21-8C195.4,297,198.54,302.56,200.88,303.73Z" style="fill: url(#Unbenannter_Verlauf_30-12)"/>
  </g>
  <g id="mouth_neutral_high" class="mouth">
    <path d="M270.24,302.34c3.47,5.15-4.67,15.51-28.53,15.51-22.43,0-32.56-10.26-28.89-15.4,3.41-4.78,11.25-1.11,28.89-1.11S267.54,298.34,270.24,302.34Z"/>
  </g>
  <g id="mouth_neutral_low" class="mouth">
    <path d="M271.13,301.75c0,1.92-5.55,3.92-29.42,3.92-22.43,0-28.89-1.39-28.89-3.67s11.25-1.57,28.89-1.57S271.13,299.83,271.13,301.75Z"/>
  </g>
  <g id="mouth_negative_low" class="mouth">
    <path d="M242,267c-47,0-67.5,34.62-62.09,46.12,5.11,10.85,22.29-3.12,63.9-3.12,37.08,0,55.17,16.69,60.59,3.12C308.36,303.33,289,267,242,267Z"/>
    <path d="M209.91,265.81a1.84,1.84,0,0,0-3.57,0L193.2,316.62c6.66-1.16,15.92-3.67,28.5-5.24Z" style="fill: url(#Unbenannter_Verlauf_30-13)"/>
    <path d="M276.91,265.81a1.84,1.84,0,0,0-3.57,0l-11.77,45.48c12.35,1.77,21.79,4.91,28.74,6.37Z" style="fill: url(#Unbenannter_Verlauf_30-14)"/>
  </g>
  <g id="mouth_negative_medium" class="mouth">
    <path d="M243.26,258c-55.18,0-73.15,66.37-63.44,92,7.18,19,33.81-2,63.44-2s53,21,60.17,2C313.14,324.37,295.84,258,243.26,258Z"/>
    <path d="M214.19,289.71l.48-24.67a63.65,63.65,0,0,0-20.6,18.27l8.81,10.41A6.41,6.41,0,0,0,214.19,289.71Z" style="fill: url(#Unbenannter_Verlauf_30-15)"/>
    <path d="M279.09,293.13,290,283.05a61.48,61.48,0,0,0-19.69-18.14l-1.95,23A6.41,6.41,0,0,0,279.09,293.13Z" style="fill: url(#Unbenannter_Verlauf_30-16)"/>
  </g>
  <g id="mouth_negative_high" class="mouth">
      <path d="M172.45,390c-16.5-43.87,0-133.65,68.74-133.65,72.21,0,83.25,78.25,74,124.65-8.58,43.12-29.68,11-74.09,11S185.48,424.65,172.45,390Z"/>
      <path d="M202.4,373.45l-3.69,29a161.06,161.06,0,0,1,17.55-6.81Z" style="fill: url(#Unbenannter_Verlauf_30-17)"/>
      <path d="M275.54,397.91c6.09,1.88,11.43,3.73,16.08,4.76l-3.18-25.35Z" style="fill: url(#Unbenannter_Verlauf_30-18)"/>
      <path d="M261.68,365.25l-13.66,27a110,110,0,0,1,20.37,3.58Z" style="fill: url(#Unbenannter_Verlauf_30-19)"/>
      <path d="M241.83,392,226,364.48l-4.9,29.87a84.54,84.54,0,0,1,20-2.36Z" style="fill: url(#Unbenannter_Verlauf_30-20)"/>
  </g>
  <g id="eyes_negative" class="eyes">
    <path d="M199.71,216.76a12.24,12.24,0,1,1-15-10.67l-15.19-7.79A26.66,26.66,0,1,0,214,221.11l-15.18-7.79A12.24,12.24,0,0,1,199.71,216.76Z" style="fill: #fff"/>
    <path d="M175.31,218.77a12.24,12.24,0,1,0,23.7-5L185.21,206A12.23,12.23,0,0,0,175.31,218.77Z" style="fill: #ea286e"/>
    <circle cx="187.52" cy="218" r="7.05" transform="matrix(1, -0.06, 0.06, 1, -13.28, 12.16)"/>
    <path d="M315.23,200.82l-15.54,6.59a12.25,12.25,0,1,1-15.08,6.4l-15.54,6.59c0,.39,0,.79.09,1.18a26.66,26.66,0,1,0,46.07-20.75Z" style="fill: #fff"/>
    <path d="M283.5,220a12.24,12.24,0,1,0,16.33-12.56l-15.16,6.21A12.17,12.17,0,0,0,283.5,220Z" style="fill: #ea286e"/>
    <circle cx="295.7" cy="218.97" r="7.05" transform="translate(-17.69 26.17) rotate(-4.92)"/>
    <path d="M259.51,206c-1.27,3.25,2.94,14.17,6.1,15.92s65.56-28.32,67.29-31.56,1.34-7.72-.8-9.29S260.78,202.75,259.51,206Z"/>
    <path d="M227.89,207.6c1.22,3.27-3.16,14.12-6.34,15.82s-65.12-29.33-66.8-32.59-1.22-7.74.94-9.28S226.67,204.33,227.89,207.6Z"/>
  </g>
  <g id="eyes_mixed_high" class="eyes">
    <path d="M179.51,211.61A24,24,0,1,0,221,210.26C219.22,207.45,181.34,208.23,179.51,211.61Z" style="fill: #fff"/>
    <circle cx="200.64" cy="223" r="11.02" style="fill: #a889c9"/>
    <circle cx="200.64" cy="223" r="5.5"/>
    <path d="M254,211.61a24,24,0,1,0,41.92-.61C294.12,207.88,255.84,208.23,254,211.61Z" style="fill: #fff"/>
    <circle cx="275.14" cy="223" r="11.02" style="fill: #a889c9"/>
    <circle cx="275.14" cy="223" r="5.5"/>
    <path d="M306.43,213.83c-2,1.92-135.82,2.17-138.12,0s.9-7.35,2.12-8.5,134.13-.76,134.94,0S308.47,211.91,306.43,213.83Z"/>
  </g>
  <g id="eyes_mixed_low" class="eyes">
    <path d="M215.16,208.17h-27a24,24,0,1,0,27,0Z" style="fill: #fff"/>
    <circle cx="201.64" cy="228" r="11.02" style="fill: #a889c9"/>
    <circle cx="201.64" cy="228" r="5.5"/>
    <path d="M293.66,208.17h-27a24,24,0,1,0,27,0Z" style="fill: #fff"/>
    <circle cx="280.14" cy="228" r="11.02" style="fill: #a889c9"/>
    <circle cx="280.14" cy="228" r="5.5"/>
    <path d="M306.5,207.5c-1.92,1.92-127.83,2.17-130,0s.85-4.35,2-5.5,126.24-.76,127,0S308.42,205.58,306.5,207.5Z"/>
  </g>
  <g id="eyes_neutral" class="eyes">
    <path d="M259.52,222.72A26.32,26.32,0,1,0,301,202.1a115.71,115.71,0,0,0-14.35-1.53,104.68,104.68,0,0,0-14.42.54A26.29,26.29,0,0,0,259.52,222.72Z" style="fill: #fff"/>
    <path d="M168,225.89a26.32,26.32,0,1,0,38.67-25.45,108,108,0,0,0-14.43.21,105.4,105.4,0,0,0-14.25,2.26A26.29,26.29,0,0,0,168,225.89Z" style="fill: #fff"/>
    <circle cx="285.77" cy="223.54" r="12.2" style="fill: #39b54a"/>
    <circle cx="285.77" cy="223.54" r="4.68"/>
    <circle cx="194.17" cy="223.54" r="12.2" transform="translate(-18.47 17.49) rotate(-4.92)" style="fill: #39b54a"/>
    <circle cx="194.17" cy="223.54" r="4.68" transform="translate(-18.47 17.49) rotate(-4.92)"/>
  </g>
  <g id="eyes_positive" class="eyes">
    <circle cx="188.64" cy="227" r="26.66" style="fill: #fff"/>
    <circle cx="188.64" cy="227" r="12.24" style="fill: #46cc9f"/>
    <circle cx="188.64" cy="227" r="7.05"/>
    <circle cx="289.64" cy="228" r="26.66" style="fill: #fff"/>
    <circle cx="289.64" cy="228" r="12.24" style="fill: #46cc9f"/>
    <circle cx="289.64" cy="228" r="7.05"/>
  </g>
  <g id="horns_enormous" class="horns">
    <path d="M344.07,182.16c-10.13,9.35-28.47,11.51-36.65,3.33-7.77-7.77-14.14-28.19,1.39-35,23.86-10.4,40.7-39,29.71-68.33-6.66-17.77-17.77-27.77-16.66-31.1s22.27,10.75,34.43,32.21C375.17,116.63,372.95,155.51,344.07,182.16Z"/>
    <path d="M135.1,185.16c10.13,9.35,28.47,11.51,36.65,3.33,7.77-7.77,14.14-28.19-1.39-35-23.86-10.4-40.7-39-29.71-68.33,6.66-17.77,17.77-27.77,16.66-31.1S135,64.86,122.88,86.31C104,119.63,106.22,158.51,135.1,185.16Z"/>
    <path d="M302.62,136.28c-5.5,11.13-13.44,15.7-23.43,12.76s-17.09-18.92-4.05-26.85c20.84-12.67,15-44.31,25-41.36S311.11,119.12,302.62,136.28Z"/>
    <path d="M174.32,136.56c5.71,11,13.74,15.44,23.67,12.31s16.72-19.25,3.54-26.92c-21.08-12.26-15.88-44-25.81-40.87S165.51,119.56,174.32,136.56Z"/>
  </g>
  <g id="horns_big" class="horns">
    <path d="M319,154c-9.12,8.42-25.63,10.37-33,3-7-7-12.73-25.38,1.25-31.48C308.73,116.15,323.89,90.38,314,64c-6-16-16-25-15-28s20.05,9.68,31,29C347,95,345,130,319,154Z"/>
    <path d="M159.67,154c9.12,8.42,25.63,10.37,33,3,7-7,12.73-25.38-1.25-31.48-21.48-9.37-36.64-35.13-26.75-61.52,6-16,16-25,15-28s-20.05,9.68-31,29C131.67,95,133.67,130,159.67,154Z"/>
  </g>
  <g id="horns_average" class="horns">
    <path d="M314.12,143.83c-7.21,10.1-15.78,13.35-25.17,8.84s-13.84-21.42.3-27.15c22.6-9.16,21.94-41.32,31.33-36.81S325.24,128.25,314.12,143.83Z"/>
    <path d="M165.69,143.83c7.21,10.1,15.78,13.35,25.17,8.84s13.84-21.42-.3-27.15c-22.6-9.16-21.94-41.32-31.33-36.81S154.56,128.25,165.69,143.83Z"/>
  </g>
  <g id="horns_small" class="horns">
    <path d="M305.73,143c-6,7-11.5,4.5-17.38-.53s-9.89-10.69-3.91-17.68,17.72-11.08,23.6-6.06S311.7,136,305.73,143Z"/>
    <path d="M195.74,126.12c5.8,7.14,2.35,12.13-3.66,17s-12.3,7.79-18.09.65-7.7-19.43-1.69-24.31S189.95,119,195.74,126.12Z"/>
  </g>
  <g id="badge" class="badge">
    <polygon points="323.26 492.28 308.04 484.61 294.82 490.95 292.27 489.73 323.26 460.8 323.26 492.28" style="fill: url(#Unbenannter_Verlauf_21)"/>
    <polygon points="320.69 489.73 306.67 482.81 292.27 489.73 292.27 459 320.69 459 320.69 489.73" style="fill: url(#Unbenannter_Verlauf_56)"/>
    <path d="M276.4,456.77c.07,2,1.85,3.87,2.85,4.72,2.58,2.2,7.13,2,9.87,4s4,7,7.25,8,7.11-2.25,10.6-2.25,7.45,3.27,10.6,2.25,4.54-6.07,7.25-8,7.9-1.67,9.89-4.42.09-7.51,1.15-10.77,5.4-5.9,5.4-9.39-4.38-6.24-5.4-9.39.83-8.05-1.15-10.77a10,10,0,0,0-4.94-3.93Z" style="fill: url(#Unbenannter_Verlauf_21-2)"/>
    <path d="M339.3,439c0,3.49-4.38,6.24-5.4,9.39s.83,8.06-1.15,10.77-7.15,2.42-9.89,4.42-4,7-7.25,8-7.11-2.25-10.6-2.25-7.45,3.27-10.6,2.25-4.54-6.07-7.25-8-7.9-1.67-9.89-4.42-.09-7.51-1.15-10.77-5.4-5.9-5.4-9.39,4.38-6.24,5.4-9.39-.83-8.06,1.15-10.77,7.15-2.42,9.89-4.42,4-7,7.25-8,7.11,2.25,10.6,2.25,7.45-3.27,10.6-2.25,4.54,6.07,7.25,8,7.9,1.67,9.89,4.42.09,7.51,1.15,10.77S339.3,435.51,339.3,439Z" style="fill: url(#Unbenannter_Verlauf_56-2)"/>
    <circle cx="305.01" cy="439" r="16.66" style="fill: url(#Unbenannter_Verlauf_7)"/>
  </g>
</svg>
