<svg xmlns="http://www.w3.org/2000/svg" xmlns:xlink="http://www.w3.org/1999/xlink" viewBox="0 0 82.11 116.37"><defs><style>.cls-1{fill:#006c65;}.cls-2{fill:#009288;}.cls-3{fill:#00aca0;}.cls-4{fill:#e39d7a;}.cls-5{fill:#38bab2;}.cls-6{fill:#fff;}.cls-7{fill:#ec098d;}.cls-8{fill:#57433b;}.cls-9{fill:#4bf8ed;opacity:0.5;}.cls-10{clip-path:url(#clip-path);}.cls-11{fill:url(#linear-gradient);}.cls-12{fill:url(#linear-gradient-2);}</style><clipPath id="clip-path"><path class="cls-1" d="M62.93,45.46a6.47,6.47,0,0,1-4.13,8.1,51.62,51.62,0,0,1-33.53,0,6.47,6.47,0,0,1-4.13-8.1h0a5.59,5.59,0,0,1,7-3.51,42.68,42.68,0,0,0,27.72,0,5.59,5.59,0,0,1,7,3.51Z"/></clipPath><linearGradient id="linear-gradient" x1="32" y1="61.55" x2="32" y2="53.93" gradientUnits="userSpaceOnUse"><stop offset="0" stop-color="#fff"/><stop offset="0.21" stop-color="#faf8f8"/><stop offset="0.53" stop-color="#eee6e3"/><stop offset="0.91" stop-color="#d9c9c2"/><stop offset="1" stop-color="#d4c1ba"/></linearGradient><linearGradient id="linear-gradient-2" x1="51.54" y1="61.55" x2="51.54" y2="53.93" xlink:href="#linear-gradient"/></defs><title>Blue Monster</title><g id="Layer_2" data-name="Layer 2"><g id="Layer_1-2" data-name="Layer 1"><path class="cls-2" d="M31.81,115c1.83-2.65.93-8.1-.08-10.89-.61-1.69-18.58-7.67-22.21-2.15-.66,1-1.46,9.74.15,11.85C11.8,116.56,30.21,117.31,31.81,115Z"/><path class="cls-3" d="M10.19,114.23a3.36,3.36,0,0,1,6.68-.05.2.2,0,0,0,0,0,3.35,3.35,0,0,1,6.19.61,3.36,3.36,0,0,1,6.59.41,3.31,3.31,0,0,1,0,.68C24.72,116.92,13.15,116.2,10.19,114.23Z"/><path class="cls-2" d="M50.42,115c-1.83-2.65-.93-8.1.08-10.89.61-1.69,18.58-7.67,22.21-2.15.66,1,1.46,9.74-.15,11.85C70.43,116.56,52,117.31,50.42,115Z"/><path class="cls-3" d="M72,114.23a3.36,3.36,0,0,0-6.68-.05.1.1,0,0,0,0,0,3.35,3.35,0,0,0-6.19.61,3.36,3.36,0,0,0-6.59.41,3.31,3.31,0,0,0,0,.68C57.52,116.92,69.08,116.2,72,114.23Z"/><path class="cls-4" d="M10.59,107.71h0C10.63,107.65,10.63,107.65,10.59,107.71Z"/><path class="cls-3" d="M29.23,32.56,25.9,35.13a50.78,50.78,0,0,1-7.62-13.94l4-1.41A46.51,46.51,0,0,0,29.23,32.56Z"/><path class="cls-3" d="M51,32.56l3.33,2.57a50.7,50.7,0,0,0,7.61-13.94l-4-1.41A46.5,46.5,0,0,1,51,32.56Z"/><path id="body" class="cls-3" d="M82.11,84.54c0,23.45-18.38,24.52-41.05,24.52S0,108,0,84.54,18.38,24.16,41.05,24.16,82.11,61.1,82.11,84.54Z"/><path class="cls-5" d="M41.05,58.06c-16.13,0-29.21,15.81-29.21,35.31a41.7,41.7,0,0,0,2,12.93c7.24,2.53,16.75,2.76,27.18,2.76s19.94-.23,27.18-2.76a41.7,41.7,0,0,0,2-12.93C70.27,73.87,57.19,58.06,41.05,58.06Z"/><circle class="cls-3" cx="62.43" cy="13.37" r="13.37"/><circle class="cls-6" cx="61.98" cy="13.65" r="11.58"/><circle class="cls-7" cx="62.01" cy="12.6" r="7.31"/><circle class="cls-8" cx="62.01" cy="12.6" r="4.39"/><circle class="cls-6" cx="58.67" cy="8.7" r="2.72"/><circle class="cls-6" cx="64.59" cy="15.31" r="1.81"/><path class="cls-3" d="M64.11,9.09a22.27,22.27,0,0,1,9.06,7.47A11.57,11.57,0,0,0,52.51,7,22.24,22.24,0,0,1,64.11,9.09Z"/><circle class="cls-3" cx="18.09" cy="13.58" r="13.37"/><circle class="cls-6" cx="18.54" cy="13.86" r="11.58"/><circle class="cls-7" cx="18.51" cy="12.81" r="7.31"/><circle class="cls-8" cx="18.51" cy="12.81" r="4.39"/><circle class="cls-6" cx="15.17" cy="8.91" r="2.72"/><circle class="cls-6" cx="21.09" cy="15.52" r="1.81"/><path class="cls-3" d="M16.41,9.3a22.25,22.25,0,0,0-9.06,7.47A11.57,11.57,0,0,1,28,7.21,22.23,22.23,0,0,0,16.41,9.3Z"/><ellipse class="cls-9" cx="42.39" cy="26.97" rx="3.63" ry="1.43" transform="translate(-0.56 0.91) rotate(-1.22)"/><ellipse class="cls-9" cx="34.44" cy="29.45" rx="2.73" ry="1.08" transform="translate(-0.62 0.74) rotate(-1.22)"/><ellipse class="cls-9" cx="41.13" cy="31.1" rx="1.75" ry="0.69" transform="translate(-0.66 0.89) rotate(-1.23)"/><ellipse class="cls-9" cx="47.92" cy="31.34" rx="2.38" ry="0.94" transform="translate(-0.65 1.02) rotate(-1.21)"/><path class="cls-1" d="M62.93,45.46a6.47,6.47,0,0,1-4.13,8.1,51.62,51.62,0,0,1-33.53,0,6.47,6.47,0,0,1-4.13-8.1h0a5.59,5.59,0,0,1,7-3.51,42.68,42.68,0,0,0,27.72,0,5.59,5.59,0,0,1,7,3.51Z"/><g class="cls-10"><circle class="cls-6" cx="30.88" cy="43.75" r="3.84"/><circle class="cls-11" cx="32" cy="56.5" r="3.84"/><circle class="cls-12" cx="51.54" cy="56.5" r="3.84"/><ellipse class="cls-7" cx="41.82" cy="55.23" rx="17.3" ry="5.15"/></g><path class="cls-2" d="M35,90.43a9.9,9.9,0,0,0,4.4-6.54h0c.06-.3.11-.62.15-.94h0a15,15,0,0,0,.11-2.16,8.45,8.45,0,0,0-.56-3h0A6,6,0,0,0,38.7,77h0c-2.29-3.95-8.32-3.43-12.66-3a28.71,28.71,0,0,1-9.42-.76c-2.61-.65-5.4-3.07-8-3.33-6-.6-1.85,9.44,0,12.27,3.53,5.33,10.18,10.59,16.61,10.7A17.48,17.48,0,0,0,35,90.44h0Z"/><path class="cls-3" d="M25.89,72.2c5.58-.43,13.88-1.07,14.1,7,.26,9.72-8.25,12.11-14.72,11.95C18.62,90.94,11.7,85.62,8,80.26,6.05,77.41,1.71,67.31,7.9,68c2.64.28,5.55,2.72,8.25,3.4A30.71,30.71,0,0,0,25.89,72.2Z"/><path class="cls-5" d="M39.74,82.26c.06-.3.11-.62.15-.94a16.64,16.64,0,0,1-8.2,1.17A15.34,15.34,0,0,0,39.74,82.26Z"/><path class="cls-5" d="M39.39,76.11a6.32,6.32,0,0,0-.39-.76,16.9,16.9,0,0,1-7.88,2.38A15.72,15.72,0,0,0,39.39,76.11Z"/><path class="cls-5" d="M36,88.26a16.2,16.2,0,0,1-5.4-.85,13,13,0,0,0,4.64,1.37Q35.62,88.53,36,88.26Z"/><path class="cls-2" d="M46.59,91.42A9.94,9.94,0,0,1,42,85h0c-.07-.3-.13-.61-.18-.93h0a15,15,0,0,1-.18-2.15,8.48,8.48,0,0,1,.46-3.05h0a5.85,5.85,0,0,1,.34-.76h0c2.14-4,8.14-3.67,12.46-3.42a28.34,28.34,0,0,0,9.33-1c2.57-.73,5.26-3.23,7.79-3.56,5.92-.77,2.15,9.38.37,12.26-3.33,5.43-9.76,10.87-16.14,11.17a17.3,17.3,0,0,1-9.66-2.11h0Z"/><path class="cls-3" d="M55.11,72.91c-5.6-.26-13.91-.64-13.88,7.39,0,9.72,8.62,11.85,15.09,11.49,6.65-.37,13.39-5.9,16.91-11.37,1.87-2.91,5.9-13.13-.26-12.29-2.63.36-5.46,2.89-8.15,3.65A30.74,30.74,0,0,1,55.11,72.91Z"/><path class="cls-5" d="M41.58,83.39c-.07-.3-.13-.62-.18-.94a16.66,16.66,0,0,0,8.23.92A15.34,15.34,0,0,1,41.58,83.39Z"/><path class="cls-5" d="M41.74,77.23a6.32,6.32,0,0,1,.36-.77,16.88,16.88,0,0,0,8,2.14A15.67,15.67,0,0,1,41.74,77.23Z"/><path class="cls-5" d="M45.51,89.27a16.25,16.25,0,0,0,5.37-1,13,13,0,0,1-4.6,1.51C46,89.62,45.77,89.45,45.51,89.27Z"/></g></g></svg>