<svg id="Ebene_1" data-name="Ebene 1" xmlns="http://www.w3.org/2000/svg" xmlns:xlink="http://www.w3.org/1999/xlink" width="415.7" height="495.24" viewBox="0 0 415.7 495.24">
  <defs>
    <linearGradient id="Unbenannter_Verlauf_9" data-name="Unbenannter Verlauf 9" x1="3.65" y1="54.87" x2="151.81" y2="203.03" gradientUnits="userSpaceOnUse">
      <stop offset="0" stop-color="#e90000"/>
      <stop offset="1" stop-color="#c50000"/>
    </linearGradient>
    <linearGradient id="Unbenannter_Verlauf_30" data-name="Unbenannter Verlauf 30" x1="57.39" y1="108.52" x2="66.52" y2="108.52" gradientUnits="userSpaceOnUse">
      <stop offset="0" stop-color="#fff"/>
      <stop offset="1" stop-color="#ccb"/>
    </linearGradient>
    <linearGradient id="Unbenannter_Verlauf_30-2" x1="90.28" y1="108.23" x2="99.88" y2="108.23" xlink:href="#Unbenannter_Verlauf_30"/>
    <linearGradient id="Unbenannter_Verlauf_24" data-name="Unbenannter Verlauf 24" x1="293.33" y1="73.81" x2="399.89" y2="180.37" gradientUnits="userSpaceOnUse">
      <stop offset="0" stop-color="#00e90f"/>
      <stop offset="1" stop-color="#00c20f"/>
    </linearGradient>
    <linearGradient id="Unbenannter_Verlauf_20" data-name="Unbenannter Verlauf 20" x1="29.42" y1="384.04" x2="126.63" y2="384.04" gradientUnits="userSpaceOnUse">
      <stop offset="0" stop-color="#0084d4"/>
      <stop offset="1" stop-color="#0047b4"/>
    </linearGradient>
    <linearGradient id="Unbenannter_Verlauf_30-3" x1="88.31" y1="383.28" x2="96.6" y2="383.28" xlink:href="#Unbenannter_Verlauf_30"/>
    <linearGradient id="Unbenannter_Verlauf_30-4" x1="59.75" y1="383.19" x2="68.07" y2="383.19" xlink:href="#Unbenannter_Verlauf_30"/>
    <linearGradient id="Unbenannter_Verlauf_30-5" x1="69.48" y1="385.35" x2="77.79" y2="385.35" xlink:href="#Unbenannter_Verlauf_30"/>
    <linearGradient id="Unbenannter_Verlauf_30-6" x1="78.52" y1="385.36" x2="86.85" y2="385.36" xlink:href="#Unbenannter_Verlauf_30"/>
    <linearGradient id="Unbenannter_Verlauf_38" data-name="Unbenannter Verlauf 38" x1="-9602.31" y1="324.94" x2="-9731.52" y2="454.16" gradientTransform="matrix(-1, 0, 0, 1, -9320.18, 0)" gradientUnits="userSpaceOnUse">
      <stop offset="0" stop-color="#ffb815"/>
      <stop offset="1" stop-color="#ff8f15"/>
    </linearGradient>
    <linearGradient id="Unbenannter_Verlauf_30-7" x1="325.2" y1="377.19" x2="338.3" y2="377.19" xlink:href="#Unbenannter_Verlauf_30"/>
    <linearGradient id="Unbenannter_Verlauf_30-8" x1="356.63" y1="377.43" x2="369.84" y2="377.43" xlink:href="#Unbenannter_Verlauf_30"/>
    <linearGradient id="Unbenannter_Verlauf_21" data-name="Unbenannter Verlauf 21" x1="373.34" y1="187.84" x2="373.34" y2="202.3" gradientUnits="userSpaceOnUse">
      <stop offset="0" stop-color="#a9965f"/>
      <stop offset="1" stop-color="#dbc78c"/>
    </linearGradient>
    <linearGradient id="Unbenannter_Verlauf_56" data-name="Unbenannter Verlauf 56" x1="366.22" y1="194.07" x2="379.28" y2="194.07" gradientUnits="userSpaceOnUse">
      <stop offset="0" stop-color="#f5efdf"/>
      <stop offset="1" stop-color="#dbc78c"/>
    </linearGradient>
    <linearGradient id="Unbenannter_Verlauf_21-2" x1="373.83" y1="193.8" x2="373.83" y2="167.64" xlink:href="#Unbenannter_Verlauf_21"/>
    <linearGradient id="Unbenannter_Verlauf_56-2" x1="361.97" y1="166.19" x2="382.18" y2="189.44" xlink:href="#Unbenannter_Verlauf_56"/>
    <linearGradient id="Unbenannter_Verlauf_7" data-name="Unbenannter Verlauf 7" x1="366.76" y1="172.31" x2="377.39" y2="183.32" gradientUnits="userSpaceOnUse">
      <stop offset="0" stop-color="#dbc78c"/>
      <stop offset="1" stop-color="#f5efdf"/>
    </linearGradient>
  </defs>
  <title>monster-overview</title>
  <g id="body_male_01">
    <g>
      <path d="M131.93,227.77c-10-1.7-29.87-.85-30.07-.84l-5.57.25,1-5.48c3.32-17.88-3-41.82-3-42.05l8.56-2.28c.26,1,5.74,21.83,3.93,40.56,6.92-.15,19-.17,26.64,1.12Z"/>
      <path d="M23.55,227.77,22.06,219c7.64-1.3,19.73-1.27,26.64-1.12-1.81-18.73,3.67-39.6,3.93-40.56l8.56,2.29-4.28-1.14,4.28,1.14c-.06.24-6.34,24.17-3,42.05l1,5.48-5.57-.25C53.42,226.92,33.59,226.07,23.55,227.77Z"/>
    </g>
    <path d="M77.68,41.61h0c61.12,0,78.26,6.46,77.79,26.32C153.11,168.11,149,192,146.57,205c-1.87,9.93-10.3,10.43-20.61,8.44-13.19-2.54-16.94-3.91-15-16.89.65-4.33,1.54-12.31,1.54-12.31s-14,.89-34.78.89S43,184.26,43,184.26s.89,8,1.54,12.31c2,13-1.79,14.34-15,16.89-10.3,2-18.73,1.49-20.61-8.44C6.45,192,2.37,168.11,0,67.94-.46,48.07,16.56,41.61,77.68,41.61Z" style="fill: url(#Unbenannter_Verlauf_9)"/>
    <g>
      <path d="M113.17,184.11l-.87-.15c0-.15,2.67-15.63,4-27.88l.88.09C115.85,168.45,113.2,184,113.17,184.11Z"/>
      <path d="M118,211.63l-.85-.25a105.22,105.22,0,0,0,3.09-15l.88.1A106.21,106.21,0,0,1,118,211.63Z"/>
      <path d="M126.44,213.42l-.84-.29a79.73,79.73,0,0,0,3.52-15.41l.88.1A80.7,80.7,0,0,1,126.44,213.42Z"/>
      <path d="M134.85,214.33,134,214a54.38,54.38,0,0,0,3.51-15.36l.88,0A55.34,55.34,0,0,1,134.85,214.33Z"/>
    </g>
    <g>
      <path d="M42.3,184.11c0-.16-2.68-15.66-4-27.94l.88-.09c1.31,12.25,4,27.73,4,27.88Z"/>
      <path d="M37.44,211.63a106.21,106.21,0,0,1-3.12-15.14l.88-.1a105.16,105.16,0,0,0,3.09,15Z"/>
      <path d="M29,213.42a80.7,80.7,0,0,1-3.57-15.6l.88-.1a79.73,79.73,0,0,0,3.52,15.41Z"/>
      <path d="M20.62,214.33A55.34,55.34,0,0,1,17,198.68l.88,0A54.38,54.38,0,0,0,21.44,214Z"/>
    </g>
  </g>
  <g id="mouth_negative_more">
    <path d="M79.18,98.54c-24.44,0-32.41,29.4-28.11,40.78,3.18,8.42,15-.89,28.11-.89s23.47,9.3,26.65.89C110.14,127.94,102.48,98.54,79.18,98.54Z"/>
    <path d="M66.3,112.59l.21-10.93a28.2,28.2,0,0,0-9.13,8.09l3.9,4.61A2.84,2.84,0,0,0,66.3,112.59Z" style="fill: url(#Unbenannter_Verlauf_30)"/>
    <path d="M95.05,114.1l4.82-4.46a27.23,27.23,0,0,0-8.72-8l-.86,10.17A2.84,2.84,0,0,0,95.05,114.1Z" style="fill: url(#Unbenannter_Verlauf_30-2)"/>
  </g>
  <path d="M59.89,80.27a5.42,5.42,0,1,1-6.63-4.73l-6.73-3.45A11.81,11.81,0,1,0,66.22,82.2L59.5,78.75A5.42,5.42,0,0,1,59.89,80.27Z" style="fill: #fff"/>
  <path d="M49.08,81.16a5.42,5.42,0,1,0,10.5-2.22L53.46,75.5A5.42,5.42,0,0,0,49.08,81.16Z" style="fill: #ea286e"/>
  <circle cx="54.49" cy="80.82" r="3.12" transform="matrix(1, -0.06, 0.06, 1, -4.95, 3.57)"/>
  <path d="M111.06,73.21l-6.88,2.92A5.43,5.43,0,1,1,97.5,79l-6.88,2.92c0,.17,0,.35,0,.52a11.81,11.81,0,1,0,20.41-9.19Z" style="fill: #fff"/>
  <path d="M97,81.71a5.42,5.42,0,1,0,7.23-5.56L97.53,78.9A5.39,5.39,0,0,0,97,81.71Z" style="fill: #ea286e"/>
  <circle cx="102.41" cy="81.25" r="3.12" transform="translate(-6.59 9.08) rotate(-4.92)"/>
  <path d="M86.38,75.51c-.56,1.44,1.3,6.28,2.7,7.05s29-12.55,29.81-14,.59-3.42-.35-4.12S86.94,74.07,86.38,75.51Z"/>
  <path d="M72.37,76.21c.54,1.45-1.4,6.26-2.81,7S40.71,70.23,40,68.78s-.54-3.43.42-4.11S71.83,74.76,72.37,76.21Z"/>
  <g id="horns_big">
    <path d="M112.73,52.47c-4,3.73-11.36,4.59-14.62,1.33-3.1-3.1-5.64-11.25.55-13.95,9.51-4.15,16.23-15.56,11.85-27.25-2.66-7.09-7.09-11.07-6.64-12.4S112.76,4.48,117.61,13C125.14,26.33,124.25,41.84,112.73,52.47Z"/>
    <path d="M42.15,52.47c4,3.73,11.36,4.59,14.62,1.33,3.1-3.1,5.64-11.25-.55-13.95C46.7,35.7,40,24.29,44.36,12.6,47,5.51,51.45,1.52,51,.19S42.13,4.48,37.28,13C29.75,26.33,30.63,41.84,42.15,52.47Z"/>
  </g>
  <g id="Body_femalish_01">
    <path d="M290.8,178.09l-4.48-.36c.07-.88.15-1.88.23-3,1-13.53,3.14-41.68,10.9-53.75l3.78,2.43c-7.14,11.11-9.29,39.52-10.2,51.65C290.95,176.19,290.87,177.2,290.8,178.09Z"/>
    <path d="M403.32,178.09c-.07-.88-.15-1.9-.23-3-.91-12.13-3.06-40.54-10.2-51.65l3.78-2.43c7.76,12.07,9.88,40.22,10.9,53.75.08,1.11.16,2.12.23,3Z"/>
    <g>
      <path d="M365,227.49c-2.26,0-4.7,0-7.35-.14l-2.46-.09.31-2.44c1.48-11.52-3-23.77-3-23.89l4.21-1.56c.19.51,4.3,11.8,3.51,23.56,4.15.11,7.73.08,10.9-.07l.22,4.49C369.36,227.44,367.26,227.49,365,227.49Z"/>
      <path d="M328.43,227.49c-2.27,0-4.37,0-6.32-.14l.22-4.49c3.17.16,6.75.18,10.9.07-.79-11.77,3.32-23.06,3.51-23.56l4.21,1.56-2.11-.78,2.11.78c0,.12-4.5,12.41-3,23.89l.31,2.44-2.46.09C333.14,227.44,330.7,227.49,328.43,227.49Z"/>
    </g>
    <path d="M346.71,208.46c-28.53,0-51.66-7.58-51.66-68.75C295,81.55,308,37.63,346.71,37.63c37.05,0,51.66,42.12,51.66,102.08C398.37,200.87,375.24,208.46,346.71,208.46Z" style="fill: url(#Unbenannter_Verlauf_24)"/>
    <path d="M415.5,182.76c-.79,1.58-2.65.36-4.82-.52.64,3.88,1.43,9.12-1.05,9.54-1.68.28-2.85-3.6-3.47-6.2-.88,2.62-2.38,5.72-4.29,5.13-2.14-.66-1.1-4.69-.11-8.11-2,1.24-4.82,3.07-5.77,1.65-1.08-1.61,1.59-5,4.15-6.92,5.09-3.84,8.87-2.43,11.2-.66C414,178.72,416.41,180.95,415.5,182.76Z"/>
    <path d="M278.62,182.76c.79,1.58,2.65.36,4.82-.52-.64,3.88-1.43,9.12,1.05,9.54,1.68.28,2.85-3.6,3.47-6.2.88,2.62,2.38,5.72,4.29,5.13,2.14-.66,1.1-4.69.11-8.11,2,1.24,4.82,3.07,5.77,1.65,1.08-1.61-1.59-5-4.15-6.92-5.09-3.84-8.87-2.43-11.2-.66C280.1,178.72,277.72,180.95,278.62,182.76Z"/>
  </g>
  <g id="mouth_neutral">
    <path d="M360.69,117.15c0,.86-2.5,1.76-13.22,1.76-10.08,0-13-.62-13-1.65s5.05-.71,13-.71S360.69,116.28,360.69,117.15Z"/>
  </g>
  <g id="eyes_mixed">
    <path d="M335.55,75.11H323.41a10.78,10.78,0,1,0,12.14,0Z" style="fill: #fff"/>
    <circle cx="329.48" cy="84.02" r="4.95" style="fill: #a889c9"/>
    <circle cx="329.48" cy="84.02" r="2.47"/>
  </g>
  <g id="eyes_mixed-2" data-name="eyes_mixed">
    <path d="M370.82,75.11H358.67a10.78,10.78,0,1,0,12.14,0Z" style="fill: #fff"/>
    <circle cx="364.74" cy="84.02" r="4.95" style="fill: #a889c9"/>
    <circle cx="364.74" cy="84.02" r="2.47"/>
  </g>
  <path d="M376.59,74.81c-.86.86-57.43,1-58.4,0s.38-2,.9-2.47,56.71-.34,57.05,0S377.45,73.95,376.59,74.81Z"/>
  <g id="horns_small">
    <path d="M376.24,45.82c-2.68,3.14-5.17,2-7.81-.24s-4.44-4.8-1.76-7.94,8-5,10.6-2.72S378.92,42.68,376.24,45.82Z"/>
    <path d="M326.83,38.25c2.6,3.21,1.06,5.45-1.64,7.64s-5.52,3.5-8.13.29-3.46-8.73-.76-10.92S324.23,35,326.83,38.25Z"/>
  </g>
  <g id="Body_female_01">
    <path d="M130.6,449.63c-.45-17.67-6.87-50-10.21-61.65l2.57-.74c3.37,11.81,9.85,44.43,10.31,62.32Z"/>
    <path d="M23.62,449.63l-2.67-.07c.46-17.88,6.93-50.51,10.31-62.32l2.57.74C30.48,399.67,24.07,432,23.62,449.63Z"/>
    <g>
      <path d="M93.68,495.24c-1,0-1.93,0-3.44-.1L87.45,495l.18-1.44c1.52-12.49-2.84-36.09-2.89-36.33l2.63-.49c.18.95,4.17,22.59,3.06,35.7a58,58,0,0,0,7.37-.05l.14,2.67C95.91,495.2,94.76,495.24,93.68,495.24Z"/>
      <path d="M62.37,495.24c-1.08,0-2.23,0-4.26-.15l.14-2.67a58,58,0,0,0,7.37.05c-1.11-13.12,2.88-35,3.06-36l2.63.48c0,.24-4.4,24.14-2.89,36.62L68.6,495l-2.79.11C64.3,495.21,63.36,495.24,62.37,495.24Z"/>
    </g>
    <path d="M78,474.57c-26.84,0-48.61-28.24-48.61-76.54S51.94,293.52,78,293.52,126.63,349.73,126.63,398,104.87,474.57,78,474.57Z" style="fill: url(#Unbenannter_Verlauf_20)"/>
    <path d="M14.29,452c.43.8,2.68.42,5-.84l.25-.14c-.17.51-.33,1.05-.5,1.62-.92,3-1,5.7-.1,6S21.12,456.8,22,454c.54,3.12,1.65,5.5,2.52,5.36s1.19-2.89.67-6.14l-.12-.77c1.79,1.57,3.58,2.35,4.15,1.76s-.56-2.57-2.41-4.52c-3.8-4-6.86-2.68-9.1-1.47S13.86,451.15,14.29,452Z"/>
    <path d="M139.94,452c-.43.8-2.68.42-5-.84l-.25-.14c.17.51.33,1.05.5,1.62.92,3,1,5.7.1,6s-2.17-1.76-3.09-4.55c-.54,3.12-1.65,5.5-2.52,5.36s-1.19-2.89-.67-6.14l.12-.77c-1.79,1.57-3.58,2.35-4.15,1.76s.56-2.57,2.41-4.52c3.8-4,6.86-2.68,9.1-1.47S140.37,451.15,139.94,452Z"/>
  </g>
  <g id="mouth_positive_more">
    <path d="M78,426c23.17,0,36.33-33.14,31.51-44.59-3.57-8.47-16.79.89-31.51.89s-26.31-9.36-29.88-.89C43.32,392.82,54.85,426,78,426Z"/>
    <path d="M93.9,387.52c1.36-.33,3.32-5,2.52-8.28,0-.07,0-.14-.06-.21-2.47.61-5.18,1.36-8,2,0,.07,0,.14,0,.21C89.15,384.49,92.36,387.89,93.9,387.52Z" style="fill: url(#Unbenannter_Verlauf_30-3)"/>
    <path d="M62.14,387.43c1.37.31,5.18-3,5.91-6.32V381c-2.91-.66-5.6-1.46-8-2.1,0,.13-.07.26-.1.4C59.22,382.62,60.6,387.08,62.14,387.43Z" style="fill: url(#Unbenannter_Verlauf_30-4)"/>
    <path d="M72.68,389.36c1.4.14,4.78-3.63,5.1-7,0,0,0-.08,0-.11a43.15,43.15,0,0,1-8.24-.92c0,.08,0,.15,0,.24C69.2,384.94,71.1,389.2,72.68,389.36Z" style="fill: url(#Unbenannter_Verlauf_30-5)"/>
    <path d="M83.62,389.38c1.38-.22,3.69-4.72,3.15-8.05a46.56,46.56,0,0,1-8.25.93c0,.13,0,.27.05.4C79.12,386,82.06,389.63,83.62,389.38Z" style="fill: url(#Unbenannter_Verlauf_30-6)"/>
  </g>
  <g id="eyes_positive">
    <circle cx="55.12" cy="352.83" r="11.89" style="fill: #fff"/>
    <circle cx="55.12" cy="352.83" r="5.46" style="fill: #46cc9f"/>
    <circle cx="55.12" cy="352.83" r="3.14"/>
    <circle cx="100.16" cy="353.27" r="11.89" style="fill: #fff"/>
    <circle cx="100.16" cy="353.27" r="5.46" style="fill: #46cc9f"/>
    <circle cx="100.16" cy="353.27" r="3.14"/>
  </g>
  <g id="horns_big-2" data-name="horns_big">
    <path d="M124.43,332.83c-4.52,4.17-12.7,5.13-16.34,1.49-3.47-3.47-6.31-12.57.62-15.59,10.64-4.64,18.15-17.4,13.25-30.47-3-7.92-7.92-12.38-7.43-13.87s9.93,4.8,15.35,14.36C138.3,303.61,137.31,320.95,124.43,332.83Z"/>
    <path d="M31.24,334.17c4.52,4.17,12.7,5.13,16.34,1.49,3.47-3.47,6.31-12.57-.62-15.59-10.64-4.64-18.15-17.4-13.25-30.47,3-7.92,7.92-12.38,7.43-13.87s-9.93,4.8-15.35,14.36C17.38,304.95,18.37,322.28,31.24,334.17Z"/>
  </g>
  <g id="horns_average">
    <path d="M105.95,312.37c-2.45,5-6,7-10.45,5.69s-7.62-8.44-1.81-12c9.29-5.65,6.7-19.76,11.16-18.44S109.73,304.72,105.95,312.37Z"/>
    <path d="M48.73,312.49c2.55,4.91,6.13,6.89,10.56,5.49s7.46-8.58,1.58-12c-9.4-5.47-7.08-19.63-11.51-18.23S44.8,304.91,48.73,312.49Z"/>
  </g>
  <g id="Body_malish_01">
    <g>
      <path d="M307.62,494.54l-.41-7.34c6.77-.38,14.19-.46,18.78-.47-1.88-14.55,4.24-24.24,4.53-24.68l6.18,4-3.09-2,3.1,2c-.06.1-6,9.7-2.74,23.56l1.07,4.57-4.69-.06C330.23,494.1,317.94,494,307.62,494.54Z"/>
      <path d="M385.8,494.54c-10.32-.58-22.61-.44-22.73-.44l-4.69.06,1.07-4.57c3.28-14-2.67-23.45-2.73-23.55l6.18-4c.29.44,6.41,10.14,4.53,24.68,4.59,0,12,.09,18.78.47Z"/>
    </g>
    <path d="M346.71,479.79l14.82.11c29.7,0,34.73-4.61,37.58-26.46,19.3-20.19,16.17-75.85,13.79-102-3.22-35.39-7.81-47.57-66.18-47.57s-63,11.95-66.18,47.34c-2.38,26.15-5.52,81.81,13.79,102,2.85,21.84,7.88,26.46,37.58,26.46Z" style="fill: url(#Unbenannter_Verlauf_38)"/>
    <path d="M293.86,453.27c0-.47-2.75-47.63-1.84-70.36l.92,0c-.91,22.69,1.81,69.8,1.84,70.27Z"/>
    <path d="M399.84,453.27l-.92-.05c0-.47,2.75-47.58,1.84-70.27l.92,0C402.59,405.65,399.86,452.8,399.84,453.27Z"/>
  </g>
  <g id="mouth_negative">
    <path d="M347.65,366.38c-21.6,0-31,15.91-28.54,21.2,2.35,5,10.25-1.44,29.37-1.44,17,0,25.35,7.67,27.85,1.44C378.13,383.08,369.25,366.38,347.65,366.38Z"/>
    <path d="M332.88,365.83a.85.85,0,0,0-1.64,0l-6,23.35c3.06-.53,7.32-1.69,13.1-2.41Z" style="fill: url(#Unbenannter_Verlauf_30-7)"/>
    <path d="M363.68,365.83a.85.85,0,0,0-1.64,0l-5.41,20.9c5.68.82,10,2.26,13.21,2.93Z" style="fill: url(#Unbenannter_Verlauf_30-8)"/>
  </g>
  <g id="eyes_mixed-3" data-name="eyes_mixed">
    <path d="M318,340.92a11,11,0,1,0,19.06-.62C336.24,339,318.83,339.37,318,340.92Z" style="fill: #fff"/>
    <circle cx="327.7" cy="346.16" r="5.06" style="fill: #a889c9"/>
    <circle cx="327.7" cy="346.16" r="2.53"/>
  </g>
  <g id="eyes_mixed-4" data-name="eyes_mixed">
    <path d="M355,340.92a11,11,0,1,0,19.27-.28C373.42,339.21,355.83,339.37,355,340.92Z" style="fill: #fff"/>
    <circle cx="364.7" cy="346.16" r="5.06" style="fill: #a889c9"/>
    <circle cx="364.7" cy="346.16" r="2.53"/>
  </g>
  <path d="M377.24,340.56c-.94.88-62.43,1-63.48,0s.41-3.38,1-3.91,61.65-.35,62,0S378.18,339.68,377.24,340.56Z"/>
  <g id="horns_average-2" data-name="horns_average">
    <path d="M380.78,309.77c-3.31,4.64-7.25,6.13-11.57,4.06s-6.36-9.84.14-12.48c10.39-4.21,10.08-19,14.4-16.92S385.89,302.61,380.78,309.77Z"/>
    <path d="M312.56,309.77c3.31,4.64,7.25,6.13,11.57,4.06s6.36-9.84-.14-12.48c-10.39-4.21-10.08-19-14.4-16.92S307.44,302.61,312.56,309.77Z"/>
  </g>
  <g id="Badge">
    <polygon points="380.46 202.3 373.47 198.78 367.39 201.69 366.22 201.13 380.46 187.84 380.46 202.3" style="fill: url(#Unbenannter_Verlauf_21)"/>
    <polygon points="379.28 201.13 372.84 197.95 366.22 201.13 366.22 187.01 379.28 187.01 379.28 201.13" style="fill: url(#Unbenannter_Verlauf_56)"/>
    <path d="M358.93,186a3.44,3.44,0,0,0,1.31,2.17c1.19,1,3.27.94,4.54,1.86s1.83,3.21,3.33,3.7,3.27-1,4.87-1,3.43,1.5,4.87,1,2.09-2.79,3.33-3.7,3.63-.77,4.55-2,0-3.45.53-5,2.48-2.71,2.48-4.32-2-2.87-2.48-4.32.38-3.7-.53-5a4.58,4.58,0,0,0-2.27-1.81Z" style="fill: url(#Unbenannter_Verlauf_21-2)"/>
    <path d="M387.84,177.82c0,1.6-2,2.87-2.48,4.32s.38,3.7-.53,5-3.29,1.11-4.55,2-1.83,3.21-3.33,3.7-3.27-1-4.87-1-3.43,1.5-4.87,1-2.09-2.79-3.33-3.7-3.63-.77-4.55-2,0-3.45-.53-5-2.48-2.71-2.48-4.32,2-2.87,2.48-4.32-.38-3.7.53-5,3.29-1.11,4.55-2,1.83-3.21,3.33-3.7,3.27,1,4.87,1,3.43-1.5,4.87-1,2.09,2.79,3.33,3.7,3.63.77,4.55,2,0,3.45.53,5S387.84,176.21,387.84,177.82Z" style="fill: url(#Unbenannter_Verlauf_56-2)"/>
    <circle cx="372.07" cy="177.82" r="7.66" style="fill: url(#Unbenannter_Verlauf_7)"/>
  </g>
</svg>
